<?xml version="1.0" encoding="utf-8"?>
<!-- Generator: Adobe Illustrator 19.2.1, SVG Export Plug-In . SVG Version: 6.00 Build 0)  -->
<svg version="1.1" id="Layer_1" xmlns="http://www.w3.org/2000/svg" xmlns:xlink="http://www.w3.org/1999/xlink" x="0px" y="0px"
	 viewBox="0 0 866 494" style="enable-background:new 0 0 866 494;" xml:space="preserve">
<style type="text/css">
	.st0{fill:#231F20;}
	.st1{fill:#0071B9;}
</style>
<g>
	<path class="st0" d="M19,174.4h16.9v48.9h0.9c3-8.6,7.2-16.2,12.7-22.9c5.5-6.7,11.9-12.4,19.1-17.1c7.3-4.7,15.2-8.3,23.8-10.7
		c8.6-2.4,17.3-3.6,26.2-3.6c13.3,0,24.7,1.6,34,4.9c9.3,3.3,17,7.6,22.9,12.9c5.9,5.3,10.6,11.3,14,18c3.4,6.7,5.9,13.4,7.3,20.2
		c1.5,6.8,2.4,13.4,2.7,19.8c0.3,6.4,0.4,11.9,0.4,16.7V403h-16.9V258.4c0-5.6-0.4-12.7-1.3-21.3c-0.9-8.6-3.5-16.8-7.8-24.7
		c-4.3-7.9-10.8-14.6-19.6-20.2c-8.7-5.6-20.8-8.5-36.2-8.5c-13.1,0-24.6,2.4-34.7,7.1c-10.1,4.7-18.7,11.3-25.8,19.8
		c-7.1,8.5-12.5,18.5-16.2,30.2c-3.7,11.7-5.6,24.5-5.6,38.5V403H19V174.4z"/>
	<path class="st0" d="M228,288.7c0-16.3,2.3-31.6,6.9-46c4.6-14.4,11.3-27.1,20.2-38c8.9-11,19.9-19.6,32.9-26
		c13-6.4,28-9.6,44.9-9.6c16.9,0,31.9,3.2,44.9,9.6c13,6.4,24,15.1,32.9,26c8.9,11,15.6,23.6,20.2,38c4.6,14.4,6.9,29.7,6.9,46
		c0,16.3-2.3,31.7-6.9,46.3c-4.6,14.5-11.3,27.2-20.2,38c-8.9,10.8-19.9,19.4-32.9,25.8c-13.1,6.4-28,9.6-44.9,9.6
		c-16.9,0-31.9-3.2-44.9-9.6c-13-6.4-24-15-32.9-25.8c-8.9-10.8-15.6-23.5-20.2-38C230.3,320.4,228,305,228,288.7z M244.9,288.7
		c0,13.6,1.9,26.8,5.8,39.4c3.9,12.6,9.5,23.8,16.9,33.6c7.4,9.8,16.6,17.6,27.6,23.3c11,5.8,23.6,8.7,37.8,8.7
		c14.2,0,26.8-2.9,37.8-8.7c11-5.8,20.2-13.6,27.6-23.3c7.4-9.8,13-21,16.9-33.6c3.9-12.6,5.8-25.7,5.8-39.4
		c0-13.6-1.9-26.8-5.8-39.4c-3.9-12.6-9.5-23.8-16.9-33.6c-7.4-9.8-16.6-17.6-27.6-23.3c-11-5.8-23.6-8.7-37.8-8.7
		c-14.2,0-26.8,2.9-37.8,8.7c-11,5.8-20.2,13.6-27.6,23.3c-7.4,9.8-13,21-16.9,33.6C246.9,261.9,244.9,275.1,244.9,288.7z"/>
	<polygon class="st1" points="467.3,85.4 484.2,85.4 484.2,295.8 625.2,174.4 649.7,174.4 549.6,259.8 656.8,403 633.6,403 
		536.2,272.7 484.2,316.7 484.2,403 467.3,403 	"/>
	<path class="st1" d="M662.1,290.9v2.7c0,13.3,1.8,26.1,5.4,38.2c3.6,12.2,8.8,22.8,15.8,32c7,9.2,15.8,16.5,26.3,21.8
		c10.5,5.3,22.8,8,36.8,8c22.9,0,41-6,54.4-18c13.4-12,22.6-28.7,27.7-50h16.9c-5,26.7-15.9,47.1-32.7,61.4
		c-16.8,14.2-38.9,21.3-66.5,21.3c-16.9,0-31.7-3-44.3-9.1c-12.6-6.1-23.1-14.4-31.6-24.9c-8.4-10.5-14.8-23-18.9-37.4
		c-4.2-14.4-6.2-29.9-6.2-46.5c0-16,2.1-31.4,6.5-46c4.3-14.7,10.7-27.6,19.3-38.7c8.6-11.1,19.3-20,32.2-26.7
		c12.9-6.7,28.1-10,45.6-10c16,0,30.2,3,42.5,8.9c12.3,5.9,22.6,14,30.9,24.2c8.3,10.2,14.6,22.1,18.9,35.6
		c4.3,13.5,6.4,28,6.4,43.4c0,1.5-0.1,3.2-0.2,5.1c-0.2,1.9-0.2,3.5-0.2,4.7H662.1z M830.2,276.2c-0.6-12.5-2.7-24.2-6.2-35.4
		c-3.6-11.1-8.8-20.9-15.8-29.4c-7-8.5-15.5-15.2-25.4-20.2c-10-5-21.3-7.6-34.1-7.6c-13.7,0-25.7,2.6-36.1,7.8
		c-10.4,5.2-19.2,12-26.3,20.5c-7.1,8.4-12.6,18.3-16.5,29.6c-3.9,11.3-6.2,22.8-7.1,34.7H830.2z"/>
	<rect x="683.9" y="118.2" class="st1" width="136.5" height="16.9"/>
</g>
</svg>
